<?xml version="1.0" encoding="utf-8"?>
<!-- Svg Vector Icons : http://www.onlinewebfonts.com/icon -->
<!DOCTYPE svg PUBLIC "-//W3C//DTD SVG 1.1//EN" "http://www.w3.org/Graphics/SVG/1.1/DTD/svg11.dtd">
<svg version="1.1" xmlns="http://www.w3.org/2000/svg" xmlns:xlink="http://www.w3.org/1999/xlink" x="0px" y="0px" viewBox="0 0 256 256" enable-background="new 0 0 256 256" xml:space="preserve">
<metadata> Svg Vector Icons : http://www.onlinewebfonts.com/icon </metadata>
<g><g><g><path fill="#000000" d="M182.6,4.2c-1,0.5-2.1,1.4-2.6,2.1c-0.4,0.6-10.4,22.6-22.4,48.8l-21.6,47.6l-3.3,1.9c-30.5,17.2-51.8,45.5-58.3,77.7c-1.9,9.8-2.5,17.5-2.5,36v16.6l-1.9,1.9c-1.6,1.6-2.3,1.9-4.2,1.9c-1.9,0-2.7-0.3-4.2-1.8l-1.8-1.8l-0.3-31.3c-0.2-25.1-0.4-32.6-1.2-37.7c-3.1-21.2-8.8-34.9-18.7-44.5c-6.2-6.1-13.8-9.9-20.8-10.4c-3.3-0.2-4.2-0.1-5.8,0.9c-3.8,2.4-4.3,7.6-1.1,10.8c1.4,1.4,2.4,1.8,4.8,2.1c11.1,1.3,20.5,12.8,24.9,30.4c2.8,11.4,3,13.9,3.3,48.8l0.3,33l1.6,3.3c2.1,4.4,6.3,8.7,10.6,10.6c2.9,1.3,4.1,1.6,8.1,1.6c4,0,5.2-0.2,8.1-1.6c4.3-1.9,8.5-6.2,10.6-10.6l1.6-3.3l0.3-22.2c0.4-23.1,0.6-25.1,3.3-35.8c5.9-23.1,21.3-43.8,43.2-58.2c2.8-1.8,6.7-4.2,8.7-5.1c2-1,4.1-2.3,4.7-2.9c1.5-1.6,46.6-100.7,46.6-102.5c0-3.4-3.8-7.2-7.2-7.2C185,3.3,183.6,3.7,182.6,4.2z"/><path fill="#000000" d="M191.4,30.9c-2.1,1.1-3.9,4.1-3.9,6.2s1.8,5.1,3.9,6.2c1.6,0.8,3.2,1,10,1h8.1L220,55.2c5.7,6,10.5,11,10.6,11.3c0.1,0.2-1.3,4.8-3.1,10l-3.2,9.7l-13,8.1c-10.6,6.7-13.2,8.5-13.9,10c-0.9,1.8-1,4.1-1,24.3v22.3l-4.4,9l-4.4,8.9v32.6c0,30.6,0.1,32.6,1.1,34.5c0.8,1.6,2.8,2.9,11.2,7.6c8.8,4.9,10.6,5.7,12.8,5.7c6.6,0.1,9.5-8.5,4.2-12.4c-1-0.7-4.7-2.9-8.3-4.9l-6.6-3.5v-28.2v-28.1l4.4-9l4.4-8.9v-21.5l0.1-21.4l12-7.5c6.6-4.1,12.5-8.1,13-8.9c0.6-0.8,3.2-7.8,5.8-15.7c4.5-13.3,4.8-14.5,4.2-16.4c-0.4-1.6-4.2-5.8-14.5-16.5c-7.7-7.9-14.8-14.9-15.7-15.4c-1.4-0.8-3.2-0.9-12-0.9C194.6,29.9,193,30,191.4,30.9z"/><path fill="#000000" d="M147,164.1c-1.9,1.1-3.9,4-3.9,5.8c0,0.6,3.5,15,7.8,32.1c4.3,17.1,7.8,31.3,7.8,31.6c0,0.4-7.7,0.6-22.6,0.6c-20.8,0-22.8,0.1-24.5,1c-2.1,1.1-3.9,4.1-3.9,6.2c0,2.2,1.8,5.1,3.9,6.2c1.7,0.9,3.8,1,29.9,1c26.1,0,28.2-0.1,29.9-1c1.9-1.1,3.9-4,3.9-5.8c0-2-18.4-74.4-19.2-75.7c-1-1.5-3.9-3.1-5.9-3.1C149.4,163.1,148,163.6,147,164.1z"/></g></g></g>
</svg>