<?xml version="1.0" encoding="utf-8"?>
<!-- Svg Vector Icons : http://www.onlinewebfonts.com/icon -->
<!DOCTYPE svg PUBLIC "-//W3C//DTD SVG 1.1//EN" "http://www.w3.org/Graphics/SVG/1.1/DTD/svg11.dtd">
<svg version="1.1" xmlns="http://www.w3.org/2000/svg" xmlns:xlink="http://www.w3.org/1999/xlink" x="0px" y="0px" viewBox="0 0 256 256" enable-background="new 0 0 256 256" xml:space="preserve">
<metadata> Svg Vector Icons : http://www.onlinewebfonts.com/icon </metadata>
<g><g><g><path fill="#000000" d="M176.1,19.2c-2,1.1-3.8,3.9-3.8,6s1.8,4.9,3.8,6c1.7,0.9,3.7,1,28.9,1h27.1v11.7v11.8l-20.4,12.3c-11.4,6.8-20.8,12.8-21.2,13.5c-0.5,0.7-2.4,14.6-5.2,36.9l-4.4,35.7l8.8,35.3c4.9,19.4,9.2,35.8,9.6,36.5c0.4,0.6,5.2,3.6,10.7,6.6c8.3,4.6,10.2,5.5,12.2,5.5c6.2,0,8.9-8.2,3.9-12c-1-0.7-4.8-2.9-8.5-4.9l-6.8-3.7l-8.1-32.3l-8-32.3l4-31.7c2.2-17.4,4.1-31.8,4.2-31.8c0.1-0.1,9.5-5.7,20.8-12.4c17.8-10.7,20.8-12.6,21.5-14.2c0.7-1.5,0.9-4.3,0.9-20.2c0-20.5-0.1-21-3.8-23c-1.7-0.9-3.8-1-33.1-1C179.9,18.2,177.8,18.3,176.1,19.2z"/><path fill="#000000" d="M150.5,44.7c-1,0.5-2.1,1.4-2.5,2.1c-0.5,0.7-2.7,8.8-5,18.1l-4.2,16.8l-2.6,3.1c-1.4,1.7-21.6,25.5-44.7,52.9l-42.1,49.8l-15.4-7.7c-8.5-4.2-16.1-7.7-16.9-7.7c-3.8,0-7.3,3.9-6.9,7.5c0.5,3.8,1.2,4.3,17.6,12.6c12.5,6.3,15.4,7.9,15.2,8.7c-0.2,0.5-1.9,7.3-3.8,15.1c-3.9,15.5-4,16.6-1.3,19.2c2.8,2.8,6.8,2.8,9.6,0.1c1.3-1.4,2-3.4,5.7-18.3c2.3-9.2,4.4-17.2,4.8-17.8c0.4-0.6,21.6-25.8,47.2-56l46.5-55l2.5-10.1c1.4-5.6,2.7-10,2.9-9.8c0.2,0.1,2.4,3.2,4.8,6.9c5.5,8.3,7.6,9.6,12.1,7.5c2.4-1.1,20.6-28.2,20.9-31.1c0.4-3.6-3.1-7.5-6.7-7.5c-3.2,0-4.6,1.4-10.8,10.7c-3.3,5-6.2,9-6.4,9c-0.2,0-3.1-4.1-6.4-9c-4.5-6.9-6.4-9.3-7.7-9.9C154.3,43.6,152.7,43.6,150.5,44.7z"/><path fill="#000000" d="M141.9,155.9c-1.9,1-3.8,3.8-3.8,5.6c0,0.5,3.4,14.4,7.5,30.9c4.1,16.5,7.5,30.1,7.5,30.5c0,0.4-13,0.5-38.9,0.5c-36.6,0-38.9,0.1-40.7,1c-2,1.1-3.8,3.9-3.8,6c0,2.1,1.8,4.9,3.8,6c1.7,0.9,4.2,1,45.9,1c41.7,0,44.2-0.1,45.9-1c1.9-1,3.8-3.8,3.8-5.6c0-1.9-17.7-71.6-18.5-72.8c-1-1.4-3.8-2.9-5.7-2.9C144.2,155,142.8,155.4,141.9,155.9z"/></g></g></g>
</svg>